<svg xmlns="http://www.w3.org/2000/svg" version="1.1" xmlns:xlink="http://www.w3.org/1999/xlink" xmlns:svgjs="http://svgjs.dev/svgjs" width="128" height="128" viewBox="0 0 128 128"><g transform="matrix(0.8046875,0,0,0.8046875,12.760752631578946,20.398031257517367)"><svg viewBox="0 0 95 81" data-background-color="#f8f8f8" preserveAspectRatio="xMidYMid meet" height="109" width="128" xmlns="http://www.w3.org/2000/svg" xmlns:xlink="http://www.w3.org/1999/xlink"><g id="tight-bounds" transform="matrix(1,0,0,1,-0.24049999999999727,-0.23410422000000608)"><svg viewBox="0 0 95.481 81.46820844000001" height="81.46820844000001" width="95.481"><g><svg viewBox="0 0 95.481 81.46820844000001" height="81.46820844000001" width="95.481"><g><svg viewBox="0 0 95.481 81.46820844000001" height="81.46820844000001" width="95.481"><g id="textblocktransform"><svg viewBox="0 0 95.481 81.46820844000001" height="81.46820844000001" width="95.481" id="textblock"><g><svg viewBox="0 0 95.481 81.46820844000001" height="81.46820844000001" width="95.481"><g><svg viewBox="0 0 95.481 81.46820844000001" height="81.46820844000001" width="95.481"><g><svg xmlns="http://www.w3.org/2000/svg" xmlns:xlink="http://www.w3.org/1999/xlink" version="1.1" x="0" y="0" viewBox="0 7.704 100 85.32400000000001" enable-background="new 0 0 100 100" xml:space="preserve" height="81.46820844000001" width="95.481" class="icon-icon-0" data-fill-palette-color="accent" id="icon-0"><path d="M85.32 57.941L50.236 93.028 0 42.79V18.233L10.529 7.704h24.555L85.32 57.941zM13.289 20.992c-1.41 1.412-1.41 3.706 0.001 5.118 1.41 1.411 3.706 1.411 5.116 0 1.413-1.409 1.413-3.706 0-5.118C16.996 19.584 14.699 19.584 13.289 20.992z" fill="#e88f00" data-fill-palette-color="accent"></path><g fill="#e88f00" data-fill-palette-color="accent"><polygon points="49.765,7.704 42.491,7.704 92.728,57.941 61.28,89.392 64.916,93.028 100,57.941  " fill="#e88f00" data-fill-palette-color="accent"></polygon></g></svg></g></svg></g></svg></g></svg></g></svg></g></svg></g><defs></defs></svg><rect width="95.481" height="81.46820844000001" fill="none" stroke="none" visibility="hidden"></rect></g></svg></g></svg>