<svg xmlns="http://www.w3.org/2000/svg" version="1.1" xmlns:xlink="http://www.w3.org/1999/xlink" xmlns:svgjs="http://svgjs.dev/svgjs" width="2000" height="353" viewBox="0 0 2000 353"><g transform="matrix(1,0,0,1,-1.2121212121212466,1.1090252812845733)"><svg viewBox="0 0 396 70" data-background-color="#f8f8f8" preserveAspectRatio="xMidYMid meet" height="353" width="2000" xmlns="http://www.w3.org/2000/svg" xmlns:xlink="http://www.w3.org/1999/xlink"><g id="tight-bounds" transform="matrix(1,0,0,1,0.2400000000000091,-0.21992002745020045)"><svg viewBox="0 0 395.52 70.43984005490037" height="70.43984005490037" width="395.52"><g><svg viewBox="0 0 527.2464023848879 93.89955565714287" height="70.43984005490037" width="395.52"><g transform="matrix(1,0,0,1,131.726402384888,1.0412064)"><svg viewBox="0 0 395.52 91.81714285714287" height="91.81714285714287" width="395.52"><g id="textblocktransform"><svg viewBox="0 0 395.52 91.81714285714287" height="91.81714285714287" width="395.52" id="textblock"><g><svg viewBox="0 0 395.52 91.81714285714287" height="91.81714285714287" width="395.52"><g transform="matrix(1,0,0,1,0,0)"><svg width="395.52" viewBox="1.2 -35.3 198.78 46.15" height="91.81714285714287" data-palette-color="#1b1b1b"><path d="M10.5 0.6L10.5 0.6Q7.95 0.6 5.48-0.38 3-1.35 1.2-2.8L1.2-2.8 3.9-6.5Q5.55-5.2 7.18-4.48 8.8-3.75 10.7-3.75L10.7-3.75Q12.7-3.75 13.65-4.58 14.6-5.4 14.6-6.7L14.6-6.7Q14.6-7.45 14.15-8.03 13.7-8.6 12.95-9.05 12.2-9.5 11.25-9.88 10.3-10.25 9.35-10.65L9.35-10.65Q8.15-11.1 6.9-11.7 5.65-12.3 4.67-13.15 3.7-14 3.08-15.13 2.45-16.25 2.45-17.8L2.45-17.8Q2.45-21.05 4.85-23.1 7.25-25.15 11.4-25.15L11.4-25.15Q13.95-25.15 16-24.25 18.05-23.35 19.55-22.2L19.55-22.2 16.9-18.7Q15.6-19.65 14.28-20.23 12.95-20.8 11.5-20.8L11.5-20.8Q9.65-20.8 8.78-20.03 7.9-19.25 7.9-18.1L7.9-18.1Q7.9-17.35 8.33-16.82 8.75-16.3 9.45-15.9 10.15-15.5 11.08-15.15 12-14.8 13-14.45L13-14.45Q14.25-14 15.5-13.43 16.75-12.85 17.78-12 18.8-11.15 19.43-9.93 20.05-8.7 20.05-7L20.05-7Q20.05-5.4 19.43-4.03 18.8-2.65 17.6-1.63 16.4-0.6 14.6 0 12.8 0.6 10.5 0.6ZM32.85 0.6L32.85 0.6Q30.7 0.6 29.22-0.05 27.75-0.7 26.82-1.88 25.9-3.05 25.47-4.67 25.05-6.3 25.05-8.3L25.05-8.3 25.05-20 21.55-20 21.55-24.3 25.35-24.55 26.05-31.25 30.85-31.25 30.85-24.55 37.1-24.55 37.1-20 30.85-20 30.85-8.3Q30.85-4 34.3-4L34.3-4Q34.95-4 35.62-4.15 36.3-4.3 36.85-4.55L36.85-4.55 37.85-0.3Q36.85 0.05 35.57 0.33 34.3 0.6 32.85 0.6ZM47.15 0.6L47.15 0.6Q43.9 0.6 41.9-1.38 39.9-3.35 39.9-6.6L39.9-6.6Q39.9-8.55 40.72-10.08 41.55-11.6 43.32-12.7 45.09-13.8 47.82-14.55 50.55-15.3 54.34-15.7L54.34-15.7Q54.3-16.65 54.07-17.53 53.84-18.4 53.32-19.07 52.8-19.75 51.95-20.13 51.09-20.5 49.84-20.5L49.84-20.5Q48.05-20.5 46.32-19.8 44.59-19.1 42.95-18.1L42.95-18.1 40.84-21.95Q42.9-23.25 45.45-24.2 48-25.15 50.95-25.15L50.95-25.15Q55.55-25.15 57.82-22.43 60.09-19.7 60.09-14.55L60.09-14.55 60.09 0 55.34 0 54.95-2.7 54.75-2.7Q53.09-1.3 51.22-0.35 49.34 0.6 47.15 0.6ZM49-3.9L49-3.9Q50.5-3.9 51.72-4.6 52.95-5.3 54.34-6.6L54.34-6.6 54.34-12.1Q51.84-11.8 50.15-11.3 48.45-10.8 47.4-10.18 46.34-9.55 45.9-8.75 45.45-7.95 45.45-7.05L45.45-7.05Q45.45-5.4 46.45-4.65 47.45-3.9 49-3.9ZM77.24 0.6L77.24 0.6Q74.74 0.6 72.57-0.25 70.39-1.1 68.79-2.75 67.19-4.4 66.29-6.8 65.39-9.2 65.39-12.25L65.39-12.25Q65.39-15.3 66.39-17.7 67.39-20.1 69.09-21.75 70.79-23.4 73.02-24.28 75.24-25.15 77.69-25.15L77.69-25.15Q80.09-25.15 81.82-24.35 83.54-23.55 84.89-22.4L84.89-22.4 82.09-18.65Q81.09-19.5 80.12-19.98 79.14-20.45 77.99-20.45L77.99-20.45Q74.99-20.45 73.14-18.23 71.29-16 71.29-12.25L71.29-12.25Q71.29-8.55 73.12-6.33 74.94-4.1 77.84-4.1L77.84-4.1Q79.29-4.1 80.57-4.73 81.84-5.35 82.89-6.2L82.89-6.2 85.24-2.4Q83.49-0.9 81.42-0.15 79.34 0.6 77.24 0.6ZM95.74 0L90.09 0 90.09-35.3 95.74-35.3 95.74-13.25 95.89-13.25 104.99-24.55 111.29-24.55 102.89-14.55 112.14 0 105.89 0 99.59-10.65 95.74-6.25 95.74 0ZM123.44 0.6L123.44 0.6Q121.29 0.6 119.81-0.05 118.34-0.7 117.41-1.88 116.49-3.05 116.06-4.67 115.64-6.3 115.64-8.3L115.64-8.3 115.64-20 112.14-20 112.14-24.3 115.94-24.55 116.64-31.25 121.44-31.25 121.44-24.55 127.69-24.55 127.69-20 121.44-20 121.44-8.3Q121.44-4 124.89-4L124.89-4Q125.54-4 126.21-4.15 126.89-4.3 127.44-4.55L127.44-4.55 128.44-0.3Q127.44 0.05 126.16 0.33 124.89 0.6 123.44 0.6ZM137.73 0.6L137.73 0.6Q134.48 0.6 132.48-1.38 130.48-3.35 130.48-6.6L130.48-6.6Q130.48-8.55 131.31-10.08 132.13-11.6 133.91-12.7 135.69-13.8 138.41-14.55 141.13-15.3 144.94-15.7L144.94-15.7Q144.88-16.65 144.66-17.53 144.44-18.4 143.91-19.07 143.38-19.75 142.53-20.13 141.69-20.5 140.44-20.5L140.44-20.5Q138.63-20.5 136.91-19.8 135.19-19.1 133.53-18.1L133.53-18.1 131.44-21.95Q133.48-23.25 136.03-24.2 138.58-25.15 141.53-25.15L141.53-25.15Q146.13-25.15 148.41-22.43 150.69-19.7 150.69-14.55L150.69-14.55 150.69 0 145.94 0 145.53-2.7 145.33-2.7Q143.69-1.3 141.81-0.35 139.94 0.6 137.73 0.6ZM139.58-3.9L139.58-3.9Q141.08-3.9 142.31-4.6 143.53-5.3 144.94-6.6L144.94-6.6 144.94-12.1Q142.44-11.8 140.73-11.3 139.03-10.8 137.98-10.18 136.94-9.55 136.48-8.75 136.03-7.95 136.03-7.05L136.03-7.05Q136.03-5.4 137.03-4.65 138.03-3.9 139.58-3.9ZM166.13 10.85L166.13 10.85Q163.93 10.85 162.06 10.45 160.18 10.05 158.83 9.25 157.48 8.45 156.71 7.25 155.93 6.05 155.93 4.45L155.93 4.45Q155.93 2.9 156.83 1.58 157.73 0.25 159.43-0.8L159.43-0.8 159.43-1Q158.48-1.6 157.86-2.6 157.23-3.6 157.23-5.1L157.23-5.1Q157.23-6.55 158.06-7.73 158.88-8.9 159.93-9.65L159.93-9.65 159.93-9.85Q158.68-10.8 157.71-12.48 156.73-14.15 156.73-16.35L156.73-16.35Q156.73-18.45 157.53-20.1 158.33-21.75 159.66-22.88 160.98-24 162.73-24.58 164.48-25.15 166.43-25.15L166.43-25.15Q167.43-25.15 168.36-24.98 169.28-24.8 170.03-24.55L170.03-24.55 178.83-24.55 178.83-20.3 174.33-20.3Q174.93-19.6 175.33-18.53 175.73-17.45 175.73-16.15L175.73-16.15Q175.73-14.1 175.01-12.55 174.28-11 173.03-9.95 171.78-8.9 170.08-8.35 168.38-7.8 166.43-7.8L166.43-7.8Q165.63-7.8 164.78-7.95 163.93-8.1 163.08-8.45L163.08-8.45Q162.53-7.95 162.21-7.45 161.88-6.95 161.88-6.1L161.88-6.1Q161.88-5.05 162.76-4.45 163.63-3.85 165.88-3.85L165.88-3.85 170.23-3.85Q174.68-3.85 176.96-2.43 179.23-1 179.23 2.2L179.23 2.2Q179.23 4 178.31 5.6 177.38 7.2 175.68 8.35 173.98 9.5 171.56 10.18 169.13 10.85 166.13 10.85ZM166.43-11.4L166.43-11.4Q168.18-11.4 169.43-12.68 170.68-13.95 170.68-16.35L170.68-16.35Q170.68-18.65 169.46-19.93 168.23-21.2 166.43-21.2L166.43-21.2Q164.63-21.2 163.38-19.95 162.13-18.7 162.13-16.35L162.13-16.35Q162.13-13.95 163.38-12.68 164.63-11.4 166.43-11.4ZM167.03 7.1L167.03 7.1Q170.03 7.1 171.86 5.93 173.68 4.75 173.68 3.15L173.68 3.15Q173.68 1.7 172.56 1.2 171.43 0.7 169.33 0.7L169.33 0.7 165.98 0.7Q163.98 0.7 162.63 0.35L162.63 0.35Q160.73 1.8 160.73 3.6L160.73 3.6Q160.73 5.25 162.41 6.18 164.08 7.1 167.03 7.1ZM190.43 0.6L190.43 0.6Q187.88 0.6 185.41-0.38 182.93-1.35 181.13-2.8L181.13-2.8 183.83-6.5Q185.48-5.2 187.11-4.48 188.73-3.75 190.63-3.75L190.63-3.75Q192.63-3.75 193.58-4.58 194.53-5.4 194.53-6.7L194.53-6.7Q194.53-7.45 194.08-8.03 193.63-8.6 192.88-9.05 192.13-9.5 191.18-9.88 190.23-10.25 189.28-10.65L189.28-10.65Q188.08-11.1 186.83-11.7 185.58-12.3 184.61-13.15 183.63-14 183-15.13 182.38-16.25 182.38-17.8L182.38-17.8Q182.38-21.05 184.78-23.1 187.18-25.15 191.33-25.15L191.33-25.15Q193.88-25.15 195.93-24.25 197.98-23.35 199.48-22.2L199.48-22.2 196.83-18.7Q195.53-19.65 194.21-20.23 192.88-20.8 191.43-20.8L191.43-20.8Q189.58-20.8 188.71-20.03 187.83-19.25 187.83-18.1L187.83-18.1Q187.83-17.35 188.25-16.82 188.68-16.3 189.38-15.9 190.08-15.5 191-15.15 191.93-14.8 192.93-14.45L192.93-14.45Q194.18-14 195.43-13.43 196.68-12.85 197.71-12 198.73-11.15 199.36-9.93 199.98-8.7 199.98-7L199.98-7Q199.98-5.4 199.36-4.03 198.73-2.65 197.53-1.63 196.33-0.6 194.53 0 192.73 0.6 190.43 0.6Z" opacity="1" transform="matrix(1,0,0,1,0,0)" fill="#1b1b1b" class="wordmark-text-0" data-fill-palette-color="primary" id="text-0"></path></svg></g></svg></g></svg></g></svg></g><g><svg viewBox="0 0 110.05057856774513 93.89955565714287" height="93.89955565714287" width="110.05057856774513"><g><svg xmlns="http://www.w3.org/2000/svg" xmlns:xlink="http://www.w3.org/1999/xlink" version="1.1" x="0" y="0" viewBox="0 7.704 100 85.32400000000001" enable-background="new 0 0 100 100" xml:space="preserve" height="93.89955565714287" width="110.05057856774513" class="icon-icon-0" data-fill-palette-color="accent" id="icon-0"><path d="M85.32 57.941L50.236 93.028 0 42.79V18.233L10.529 7.704h24.555L85.32 57.941zM13.289 20.992c-1.41 1.412-1.41 3.706 0.001 5.118 1.41 1.411 3.706 1.411 5.116 0 1.413-1.409 1.413-3.706 0-5.118C16.996 19.584 14.699 19.584 13.289 20.992z" fill="#e88f00" data-fill-palette-color="accent"></path><g fill="#e88f00" data-fill-palette-color="accent"><polygon points="49.765,7.704 42.491,7.704 92.728,57.941 61.28,89.392 64.916,93.028 100,57.941  " fill="#e88f00" data-fill-palette-color="accent"></polygon></g></svg></g></svg></g></svg></g><defs></defs></svg><rect width="395.52" height="70.43984005490037" fill="none" stroke="none" visibility="hidden"></rect></g></svg></g></svg>